<svg width="60" height="60" viewBox="0 0 60 60" fill="none" xmlns="http://www.w3.org/2000/svg">
<path d="M40.035 29.0325L41.2969 31.875H11.2013L14.7019 23.9944C14.8519 23.6569 15.1894 23.4375 15.5588 23.4375H28.1475C27.4931 22.5694 26.9325 21.6319 26.4919 20.625H15.5606C14.0794 20.625 12.735 21.4987 12.1331 22.8525L10.6237 26.25H4.6875C4.17 26.25 3.75 26.67 3.75 27.1875V28.4625C3.75 29.3569 4.38 30.1256 5.2575 30.3019L8.53313 30.9563L5.625 37.5V52.5C5.625 53.535 6.465 54.375 7.5 54.375H13.125C14.16 54.375 15 53.535 15 52.5V46.875H37.5V52.5C37.5 53.535 38.34 54.375 39.375 54.375H45C46.035 54.375 46.875 53.535 46.875 52.5V37.5L42.915 28.5919C41.9888 28.8356 41.025 28.9856 40.035 29.0325ZM13.125 42.1875C11.5725 42.1875 10.3125 40.9275 10.3125 39.375C10.3125 37.8225 11.5725 36.5625 13.125 36.5625C14.6775 36.5625 15.9375 37.8225 15.9375 39.375C15.9375 40.9275 14.6775 42.1875 13.125 42.1875ZM30 41.25H22.5C21.4631 41.25 20.625 40.4119 20.625 39.375C20.625 38.3381 21.4631 37.5 22.5 37.5H30C31.0369 37.5 31.875 38.3381 31.875 39.375C31.875 40.4119 31.0369 41.25 30 41.25ZM39.375 42.1875C37.8225 42.1875 36.5625 40.9275 36.5625 39.375C36.5625 37.8225 37.8225 36.5625 39.375 36.5625C40.9275 36.5625 42.1875 37.8225 42.1875 39.375C42.1875 40.9275 40.9275 42.1875 39.375 42.1875Z" fill="#6D6D6D"/>
<path d="M57.3019 28.95L49.0556 20.7056C50.0456 19.0312 50.625 17.085 50.625 15.0018C50.625 8.79746 45.5794 3.75183 39.375 3.75183C33.1706 3.75183 28.125 8.79746 28.125 15.0018C28.125 21.2062 33.1706 26.2518 39.375 26.2518C41.4581 26.2518 43.4044 25.6725 45.0787 24.6825L53.325 32.9268C54.4237 34.0256 56.2031 34.0256 57.3019 32.9268C58.3988 31.8281 58.3988 30.0468 57.3019 28.95ZM31.875 15.0018C31.875 10.8656 35.2387 7.50183 39.375 7.50183C43.5112 7.50183 46.875 10.8656 46.875 15.0018C46.875 19.1381 43.5112 22.5018 39.375 22.5018C35.2387 22.5018 31.875 19.1381 31.875 15.0018Z" fill="#4D7DF9"/>
</svg>
