<svg width="50" height="50" viewBox="0 0 50 50" fill="none" xmlns="http://www.w3.org/2000/svg">
<g id="today_11831486 1">
<path id="Vector" d="M42.8571 46.4286H7.14277C6.07134 46.4286 5.35706 45.7143 5.35706 44.6428V8.92855C5.35706 7.85713 6.07134 7.14284 7.14277 7.14284H10.7142V5.35713C10.7142 4.2857 11.4285 3.57141 12.4999 3.57141C13.5713 3.57141 14.2856 4.2857 14.2856 5.35713V7.14284H35.7142V5.35713C35.7142 4.2857 36.4285 3.57141 37.4999 3.57141C38.5713 3.57141 39.2856 4.2857 39.2856 5.35713V7.14284H42.8571C43.9285 7.14284 44.6428 7.85713 44.6428 8.92855V44.6428C44.6428 45.7143 43.9285 46.4286 42.8571 46.4286ZM8.92848 42.8571H41.0713V17.8571H8.92848V42.8571Z" fill="#6D6D6D"/>
<rect id="Rectangle 100" x="15" y="22" width="10" height="10" rx="5" fill="#4D7DF9"/>
</g>
</svg>
