<svg width="60" height="60" viewBox="0 0 60 60" fill="none" xmlns="http://www.w3.org/2000/svg">
<g id="engine_10769219 1">
<path id="Vector" d="M53.3531 24.0605H47.9562C47.1975 24.0605 46.5837 24.6774 46.5837 25.4343V29.5093H44.1944C43.6781 29.5093 43.2156 29.2243 42.9844 28.7618L39.0369 20.8768C38.34 19.4793 36.9375 18.6112 35.3775 18.6112H32.9881V13.9199H30.2437V18.6112H26.1656C25.8006 18.6112 25.4519 18.7587 25.1937 19.013L20.1487 24.0599H15.2694C14.5106 24.0599 13.8969 24.6768 13.8969 25.4337V32.233H5.24437V24.9555H2.5V40.9974H5.24437V34.9824H13.8969V41.7787C13.8969 42.5362 14.51 43.1524 15.2694 43.1524H19.9825L24.2119 49.4962C24.9725 50.6387 26.2475 51.3262 27.6231 51.3262H37.06C39.3187 51.3262 41.1569 49.4862 41.1569 47.2281V43.153H46.5837V47.2281C46.5837 47.9855 47.1969 48.6018 47.9562 48.6018H53.3531C55.64 48.6018 57.5 46.7387 57.5 44.453V28.2093C57.5 25.9237 55.64 24.0605 53.3531 24.0605ZM54.7556 44.4518C54.7556 45.2262 54.1275 45.8524 53.3531 45.8524H49.3287V41.7774C49.3287 41.0199 48.7156 40.4037 47.9562 40.4037H39.7844C39.0269 40.4037 38.4119 41.0205 38.4119 41.7774V47.2262C38.4119 47.9699 37.8056 48.5768 37.06 48.5768H27.6231C27.1706 48.5768 26.7487 48.3524 26.4969 47.9737L21.8587 41.0168C21.6044 40.6349 21.175 40.4037 20.7162 40.4037H16.6412V26.8087H20.7162C21.0812 26.8087 21.43 26.6612 21.6881 26.4068L26.7331 21.3599H35.3775C35.89 21.3599 36.3525 21.6449 36.5837 22.1037L40.5281 29.9887C41.225 31.3862 42.6312 32.2574 44.1944 32.2574H47.9562C48.715 32.2574 49.3287 31.6405 49.3287 30.8837V26.8087H53.3531C54.1275 26.8087 54.7556 27.4355 54.7556 28.2093V44.4518Z" fill="#6D6D6D"/>
<path id="Vector_2" d="M38.2461 11.1137C38.2461 9.7668 37.1536 8.67493 35.8068 8.67493H27.4218C26.0749 8.67493 24.9836 9.7668 24.9836 11.1137V13.9187H38.2455L38.2461 11.1137Z" fill="#6D6D6D"/>
<path id="Vector_3" d="M30.8063 32.504C30.6242 32.4453 30.5238 32.2519 30.5853 32.0735L32.7274 25.7818C32.8488 25.4219 32.3671 25.1666 32.1259 25.4639L24.0757 35.3934C23.9259 35.5765 24.0085 35.8492 24.2344 35.9245L30.1814 37.9261C30.3481 37.9824 30.4461 38.1528 30.4072 38.3217L28.9095 44.9178C28.8294 45.2762 29.3046 45.4886 29.5256 45.1953L37.2649 35.0335C37.4058 34.8464 37.3192 34.5785 37.0957 34.5064L30.8063 32.504Z" fill="#4D7DF9"/>
</g>
</svg>
