<svg width="50" height="50" viewBox="0 0 50 50" fill="none" xmlns="http://www.w3.org/2000/svg">
<g id="steering-wheel_11175154 2">
<path id="Vector" fill-rule="evenodd" clip-rule="evenodd" d="M9.82866 18.0344C13.9005 18.4985 22.386 19.2277 25.5349 19.2277C28.1677 19.2277 35.7662 18.6235 40.224 18.1506C40.7578 19.3344 41.1578 20.5912 41.4042 21.9021L34.3063 24.3719C34.0276 24.4688 33.7818 24.6428 33.5979 24.874C32.5386 26.2032 28.799 30.8974 27.6828 32.299C27.4766 32.5579 27.3578 32.8751 27.3438 33.2053L26.9823 41.5751C26.3323 41.6521 25.6708 41.6917 25 41.6917C24.3313 41.6917 23.6714 41.6527 23.0224 41.5756L22.674 33.2115C22.6599 32.8813 22.5417 32.5636 22.336 32.3047C21.2104 30.8881 17.4125 26.1084 16.3552 24.7777C16.175 24.5511 15.936 24.3792 15.6641 24.2808L8.62866 21.7313C8.88543 20.4391 9.29168 19.2006 9.82866 18.0344ZM25 22.3865C26.4422 22.3865 27.6136 23.5579 27.6136 25C27.6136 26.4422 26.4422 27.6136 25 27.6136C23.5578 27.6136 22.3865 26.4422 22.3865 25C22.3865 23.5579 23.5578 22.3865 25 22.3865Z" fill="#4D7DF9"/>
<path id="Vector_2" fill-rule="evenodd" clip-rule="evenodd" d="M25 1.04163C38.2229 1.04163 48.9583 11.777 48.9583 25C48.9583 38.2229 38.2229 48.9583 25 48.9583C11.777 48.9583 1.04163 38.2229 1.04163 25C1.04163 11.777 11.777 1.04163 25 1.04163ZM25 6.74579C35.075 6.74579 43.2541 14.925 43.2541 25C43.2541 35.075 35.075 43.2541 25 43.2541C14.925 43.2541 6.74579 35.075 6.74579 25C6.74579 14.925 14.925 6.74579 25 6.74579Z" fill="#6D6D6D"/>
</g>
</svg>
