<svg width="50" height="50" viewBox="0 0 50 50" fill="none" xmlns="http://www.w3.org/2000/svg">
<g id="car-parts_10965129 1">
<path id="Vector" d="M12.5 4.6875V14.0625C12.5 14.925 11.8 15.625 10.9375 15.625H7.8125C6.95 15.625 6.25 14.925 6.25 14.0625V4.6875C6.25 3.825 6.95 3.125 7.8125 3.125H10.9375C11.8 3.125 12.5 3.825 12.5 4.6875Z" fill="#6D6D6D"/>
<path id="Vector_2" d="M43.75 4.6875V14.0625C43.75 14.925 43.05 15.625 42.1875 15.625H39.0625C38.2 15.625 37.5 14.925 37.5 14.0625V4.6875C37.5 3.825 38.2 3.125 39.0625 3.125H42.1875C43.05 3.125 43.75 3.825 43.75 4.6875Z" fill="#6D6D6D"/>
<path id="Vector_3" d="M12.5 35.9375V45.3125C12.5 46.175 11.8 46.875 10.9375 46.875H7.8125C6.95 46.875 6.25 46.175 6.25 45.3125V35.9375C6.25 35.075 6.95 34.375 7.8125 34.375H10.9375C11.8 34.375 12.5 35.075 12.5 35.9375Z" fill="#6D6D6D"/>
<path id="Vector_4" d="M43.75 35.9375V45.3125C43.75 46.175 43.05 46.875 42.1875 46.875H39.0625C38.2 46.875 37.5 46.175 37.5 45.3125V35.9375C37.5 35.075 38.2 34.375 39.0625 34.375H42.1875C43.05 34.375 43.75 35.075 43.75 35.9375Z" fill="#6D6D6D"/>
<path id="Vector_5" d="M14.8438 7.8125H35.1562V10.9375H26.1719V18.75H26.5625C27.425 18.75 28.125 19.45 28.125 20.3125V28.125C28.125 28.9875 27.425 29.6875 26.5625 29.6875H26.1719V35.9375H29.6875C30.55 35.9375 31.25 36.6375 31.25 37.5V39.0625H35.1562V42.1875H31.25V43.75C31.25 44.6125 30.55 45.3125 29.6875 45.3125H20.3125C19.45 45.3125 18.75 44.6125 18.75 43.75V42.1875H14.8438V39.0625H18.75V37.5C18.75 36.6375 19.45 35.9375 20.3125 35.9375H23.8281V29.6875H23.4375C22.575 29.6875 21.875 28.9875 21.875 28.125V20.3125C21.875 19.45 22.575 18.75 23.4375 18.75H23.8281V10.9375H14.8438V7.8125Z" fill="#4D7DF9"/>
</g>
</svg>
